Coordinates
version=1
nRows=29
nColumns=24
inDegrees=yes

Units are S.I. units (second, meters, Newtons, ...)
Angles are in degrees.

endheader
time	pelvis_tilt	pelvis_list	pelvis_rotation	pelvis_tx	pelvis_ty	pelvis_tz	hip_flexion_r	hip_adduction_r	hip_rotation_r	knee_angle_r	ankle_angle_r	subtalar_angle_r	mtp_angle_r	hip_flexion_l	hip_adduction_l	hip_rotation_l	knee_angle_l	ankle_angle_l	subtalar_angle_l	mtp_angle_l	lumbar_extension	lumbar_bending	lumbar_rotation
      0.80833333	     -8.51582809	     -3.26959322	     -5.03366509	     -0.42908283	      0.99082299	      0.35144670	     14.23553174	     10.69371152	      3.86624555	     -8.54984025	     -8.58514140	      4.20836560	    -44.46744089	     20.95946823	     -7.07094108	     -5.85859878	    -62.42738173	    -24.92287981	    -12.71159502	     -1.80413073	     22.11163705	      4.54695805	      2.85470764
      0.81250000	     -8.45802637	     -3.10916817	     -5.07634846	     -0.42395612	      0.99153462	      0.35169336	     13.75704163	     10.52245986	      4.04704463	     -8.40540179	     -8.42961462	      4.19038764	    -44.47913831	     21.58446387	     -6.91180813	     -5.73834031	    -62.51918513	    -24.15284451	    -12.96820623	     -1.85010788	     22.01761121	      4.37693680	      3.01976749
      0.81666667	     -8.39746719	     -2.94990423	     -5.12293573	     -0.41884637	      0.99222813	      0.35193475	     13.27523651	     10.35097822	      4.23721811	     -8.26039686	     -8.26838118	      4.17072049	    -44.49124800	     22.18934353	     -6.75176396	     -5.62739813	    -62.54344737	    -23.39756434	    -13.20089853	     -1.90319684	     21.91720948	      4.20679167	      3.18818945
      0.82083333	     -8.35839286	     -2.80887109	     -5.13269653	     -0.41372363	      0.99285705	      0.35216785	     12.79905971	     10.19799091	      4.44787427	     -8.06747777	     -8.15392768	      4.16056299	    -44.49683512	     22.81070933	     -6.60356791	     -5.46643669	    -62.46093291	    -22.90425949	    -13.37324401	     -1.93153678	     21.84534746	      3.97096392	      3.31761866
      0.82500000	     -8.30814391	     -2.64587718	     -5.17946384	     -0.40862676	      0.99348833	      0.35237853	     12.32587380	     10.01850351	      4.63973931	     -7.91594273	     -7.98835530	      4.12125317	    -44.50278856	     23.38876686	     -6.42743828	     -5.35942222	    -62.34188946	    -22.17598206	    -13.61129103	     -1.96646341	     21.77737713	      3.77512546	      3.45951029
      0.82916667	     -8.24351597	     -2.46585916	     -5.28867166	     -0.40358538	      0.99413465	      0.35263565	     11.85721071	      9.82614200	      4.80900538	     -7.79932696	     -7.79353759	      4.09480229	    -44.51485523	     23.91649874	     -6.25114758	     -5.33253541	    -62.17165925	    -21.34779727	    -13.78559891	     -2.03537570	     21.65052560	      3.69397741	      3.63593443
      0.83333333	     -8.20756350	     -2.32220120	     -5.30794548	     -0.39847700	      0.99468190	      0.35282143	     11.38128008	      9.66158676	      5.00604371	     -7.59876734	     -7.66950663	      4.07698532	    -44.52118985	     24.47896628	     -6.08862622	     -5.19627068	    -61.88899066	    -20.90077264	    -13.89591039	     -2.07512220	     21.59834908	      3.47666543	      3.77394028
      0.83750000	     -8.13167497	     -2.15126341	     -5.41423951	     -0.39343286	      0.99529004	      0.35305856	     10.88872255	      9.47285067	      5.19553203	     -7.46735508	     -7.47106704	      4.03438107	    -44.53504291	     24.95025718	     -5.91464081	     -5.16077711	    -61.57020902	    -20.11806784	    -14.03385007	     -2.16178878	     21.46356889	      3.36234908	      3.96729842
      0.84166667	     -8.11402956	     -2.01721985	     -5.43172262	     -0.38833983	      0.99574931	      0.35320589	     10.42886084	      9.31572862	      5.38135824	     -7.25645578	     -7.35740476	      4.00554066	    -44.54101571	     25.49382004	     -5.75400388	     -5.02208691	    -61.15202548	    -19.74602557	    -14.11995054	     -2.20260412	     21.43458283	      3.17002049	      4.08929573
      0.84583333	     -8.08238226	     -1.86924021	     -5.48709487	     -0.38323118	      0.99621431	      0.35340393	      9.95477185	      9.14636759	      5.56612110	     -7.06167567	     -7.20533406	      3.95520138	    -44.54777457	     25.98268471	     -5.59015180	     -4.93901162	    -60.68202861	    -19.21732505	    -14.24451292	     -2.25210129	     21.40059975	      2.99717644	      4.22340110
      0.85000000	     -7.98616710	     -1.70479942	     -5.62418951	     -0.37822238	      0.99677412	      0.35368585	      9.43598413	      8.96227073	      5.77396643	     -6.91497676	     -7.00837246	      3.91692348	    -44.56703140	     26.35676885	     -5.43582097	     -4.95224444	    -60.15578458	    -18.52035173	    -14.30885229	     -2.37757198	     21.19718757	      2.90393350	      4.44803837
      0.85416667	     -7.92584705	     -1.55797286	     -5.68975251	     -0.37309568	      0.99724384	      0.35386987	      8.92095183	      8.78535337	      5.94744570	     -6.69664026	     -6.86966825	      3.86593169	    -44.58812442	     26.75683087	     -5.27016970	     -4.88634546	    -59.52870584	    -18.08553142	    -14.35328656	     -2.51103207	     21.12361876	      2.74866942	      4.65402210
      0.85833333	     -7.93813559	     -1.45547198	     -5.70044037	     -0.36806066	      0.99749602	      0.35396099	      8.48179548	      8.65555853	      6.11384027	     -6.45839300	     -6.77156999	      3.82539107	    -44.59563484	     27.25676644	     -5.13430524	     -4.75366885	    -58.87478380	    -17.80560117	    -14.43324409	     -2.56399753	     21.11823373	      2.62647579	      4.74750623
      0.86250000	     -7.93584223	     -1.33480364	     -5.75304819	     -0.36296584	      0.99777174	      0.35410318	      8.02481606	      8.50731401	      6.27299054	     -6.22773169	     -6.64880480	      3.75867330	    -44.60353999	     27.68936752	     -4.99458047	     -4.68649417	    -58.14476650	    -17.44344043	    -14.53853151	     -2.62236025	     21.12293957	      2.49531880	      4.85059940
      0.86666667	     -7.92589020	     -1.21659533	     -5.81656605	     -0.35789659	      0.99801609	      0.35427901	      7.55791089	      8.36175698	      6.44346630	     -5.99103221	     -6.52414308	      3.69749132	    -44.61318285	     28.08960658	     -4.86379265	     -4.63794065	    -57.35645392	    -17.08384594	    -14.64437421	     -2.69291178	     21.09284531	      2.37209731	      4.96789499
      0.87083333	     -7.91653311	     -1.11120706	     -5.87955553	     -0.35284694	      0.99822334	      0.35443107	      7.08959171	      8.22670576	      6.60987034	     -5.75085994	     -6.40609468	      3.63237770	    -44.62384813	     28.46762186	     -4.74554568	     -4.59670764	    -56.50682389	    -16.76586042	    -14.74775752	     -2.77047216	     21.05650220	      2.26981327	      5.08859756
      0.87500000	     -7.90057681	     -1.00767932	     -5.93784854	     -0.34775951	      0.99840457	      0.35458267	      6.60349766	      8.08962362	      6.76936007	     -5.49054691	     -6.29383719	      3.57028367	    -44.63519549	     28.80939334	     -4.62654914	     -4.56084427	    -55.58858757	    -16.48600427	    -14.86053168	     -2.85317875	     21.02799531	      2.17187813	      5.21234297
      0.87916667	     -7.90471683	     -0.91569467	     -5.99528600	     -0.34270102	      0.99850598	      0.35471807	      6.14043999	      7.96411181	      6.91968539	     -5.22882418	     -6.19110918	      3.50760319	    -44.64715159	     29.15225287	     -4.51994784	     -4.53213335	    -54.61284373	    -16.24657164	    -14.98876347	     -2.94068006	     21.00037375	      2.08553711	      5.33485312
      0.88333333	     -7.89957715	     -0.82627972	     -6.05415242	     -0.33761827	      0.99859106	      0.35486820	      5.65934705	      7.83869618	      7.06866590	     -4.95341777	     -6.09291489	      3.44738172	    -44.66064197	     29.45387272	     -4.41797385	     -4.51957301	    -53.56750366	    -16.04307637	    -15.14211319	     -3.03958513	     20.98385561	      2.00455300	      5.46349378
      0.88750000	     -7.74535168	     -0.70065469	     -6.19593864	     -0.33252631	      0.99895319	      0.35517306	      5.01604405	      7.66301713	      7.29503701	     -4.67291059	     -6.00730104	      3.37333682	    -44.70404854	     29.52310555	     -4.30962384	     -4.65722280	    -52.38820388	    -15.97546606	    -15.48366671	     -3.33884057	     20.65287363	      1.82531524	      5.78305366
      0.89166667	     -7.66827510	     -0.63264693	     -6.20318280	     -0.32740826	      0.99908078	      0.35515964	      4.43052892	      7.53016046	      7.40466812	     -4.33727585	     -5.93957850	      3.37857194	    -44.80704707	     29.70205047	     -4.18541880	     -4.63557963	    -51.20069386	    -15.97838265	    -15.85137222	     -4.04328501	     20.50828856	      1.87636804	      6.13218698
      0.89583333	     -7.79096871	     -0.58479963	     -6.23250462	     -0.32237429	      0.99878651	      0.35522375	      4.09705392	      7.45747475	      7.45342971	     -4.07899963	     -5.84644273	      3.29542659	    -44.81670237	     30.09203114	     -4.12303994	     -4.59714614	    -50.03059781	    -15.78264046	    -15.92736200	     -4.12086513	     20.67767652	      1.85551700	      6.14572440
      0.90000000	     -7.90035290	     -0.54010137	     -6.25973556	     -0.31733008	      0.99847468	      0.35530577	      3.73680281	      7.38420689	      7.55439291	     -3.79570482	     -5.76313832	      3.22900594	    -44.82780287	     30.43972685	     -4.06594035	     -4.58358003	    -48.79477299	    -15.65157254	    -16.06975301	     -4.21215315	     20.80498034	      1.80995084	      6.17793072
      0.90416667	     -7.98896638	     -0.48938225	     -6.30035245	     -0.31225715	      0.99817412	      0.35538240	      3.34766979	      7.29945829	      7.67583680	     -3.50249441	     -5.68470453	      3.15151110	    -44.84116420	     30.72483105	     -4.00335516	     -4.60494646	    -47.47483725	    -15.58909886	    -16.28205560	     -4.32422923	     20.92642233	      1.76882169	      6.22580021
      0.90833333	     -7.97176137	     -0.40607955	     -6.40460803	     -0.30717157	      0.99806052	      0.35562767	      2.84387478	      7.17252031	      7.87904464	     -3.19902102	     -5.64039979	      3.07490595	    -44.88149366	     30.84049079	     -3.94042852	     -4.79359618	    -46.01677315	    -15.84570007	    -16.82753017	     -4.64982089	     20.77620715	      1.57650073	      6.39092107
      0.91250000	     -8.09524582	     -0.41547341	     -6.40241233	     -0.30222184	      0.99756881	      0.35557767	      2.50889816	      7.15226173	      7.89581332	     -2.93819818	     -5.55637045	      3.00250108	    -44.89031344	     31.14642083	     -3.91708969	     -4.75548334	    -44.65483457	    -15.68849310	    -16.97169284	     -4.73197746	     20.91479563	      1.73404370	      6.39907504
      0.91666667	     -8.08252379	     -0.34144984	     -6.48758306	     -0.29705893	      0.99737066	      0.35577247	      1.99978264	      7.02946509	      8.04022927	     -2.61276641	     -5.51549942	      2.95369049	    -44.94770986	     31.21431548	     -3.85370546	     -4.99798600	    -43.08349876	    -16.05680253	    -17.61402424	     -5.22586982	     20.83737819	      1.65787008	      6.60259467
      0.92083333	     -8.24152918	     -0.35689741	     -6.45382437	     -0.29204009	      0.99673307	      0.35567704	      1.68779462	      7.01656528	      8.05331158	     -2.32773126	     -5.42214784	      2.87514829	    -44.95733147	     31.51066057	     -3.82455560	     -4.97468784	    -41.62959551	    -15.89008073	    -17.72420947	     -5.32267009	     21.02438489	      1.70992100	      6.62537426
      0.92500000	     -8.38927156	     -0.35777277	     -6.46558698	     -0.28696383	      0.99610478	      0.35570434	      1.36495411	      6.99398956	      8.09664112	     -2.05091880	     -5.34958937	      2.79521941	    -44.96922887	     31.74728542	     -3.81380750	     -5.04768730	    -40.09100036	    -15.86325706	    -17.89401188	     -5.44299186	     21.21775481	      1.72200794	      6.65816402
